<mxfile host="app.diagrams.net" modified="2024-07-08T19:26:49.806Z" agent="Mozilla/5.0 (Windows NT 10.0; Win64; x64) AppleWebKit/537.36 (KHTML, like Gecko) Chrome/126.0.0.0 Safari/537.36" version="21.6.9" etag="zTh_-ySeRVC7oAC1v_OF" type="github">
  <diagram name="Page-1" id="N7XE-F2CiFV-qrdg2oZL">
    <mxGraphModel>
      <root>
        <mxCell id="0" />
        <mxCell id="1" parent="0" />
      </root>
    </mxGraphModel>
  </diagram>
</mxfile>
